PathFileType	4	(X/Y/Z)	C:/Users/beibeiliu/ov580/test_trc/User1\sequence.30_training_dense_right.trc
DataRate	CameraRate	NumFrames	NumMarkers	Units	OrigDataRate	OrigDataStartFrame	OrigNumFrames
120	120	12	19	mm	120	29	227
Frame#	Time	ThumbCMC			ThumbMCP			ThumbIP			ThumbTip			IndexMCP			IndexPIP			IndexTip			MiddleMCP			MiddlePIP			MiddleTip			RingMCP			RingPIP			RingTip			PinkyMCP			PinkyPIP			PinkyTip			BackHand1			BackHand2			BackHand3	
		X0	Y0	Z0	X1	Y1	Z1	X2	Y2	Z2	X3	Y3	Z3	X4	Y4	Z4	X5	Y5	Z5	X6	Y6	Z6	X7	Y7	Z7	X8	Y8	Z8	X9	Y9	Z9	X10	Y10	Z10	X11	Y11	Z11	X12	Y12	Z12	X13	Y13	Z13	X14	Y14	Z14	X15	Y15	Z15	X16	Y16	Z16	X17	Y17	Z17	X18	Y18	Z18	
28	0.233333	192.682	10.8139	68.7233	177.692	29.5866	46.6216	169.436	39.8523	26.2062	160.442	54.5247	8.76776	195.966	-12.9241	-11.7018	197.147	-16.5301	-32.0795	201.549	-24.8287	-60.517	176.885	-39.4259	-18.6922	162.983	-39.2068	-42.6197	140.605	-40.4568	-68.3921	152.932	-55.6238	-5.66835	127.973	-51.7863	-20.869	101.917	-42.2599	-23.2042	140.115	-68.6074	20.8916	118.358	-60.717	13.5267	97.6559	-47.2224	8.10349	192.961	-56.4875	46.2043	203.19	-56.9684	81.124	208.629	-22.5218	54.0329	
29	0.241667	195.245	8.9114	70.5885	180.85	29.9308	49.7862	174.074	44.4026	23.979	164.897	53.8711	4.99975	193.274	-18.2028	-12.9185	195.127	-21.2714	-32.4181	197.303	-29.8334	-56.4832	172.088	-40.0269	-19.828	153.583	-37.9223	-43.1007	129.695	-31.0155	-65.5677	150.856	-54.6936	-2.90451	123.75	-45.8292	-20.0482	98.1532	-33.3066	-22.0302	138.983	-66.2046	21.5328	114.694	-56.9025	13.8994	95.6341	-42.7405	8.53351	189.686	-58.0066	44.7409	201.084	-59.5525	80.3216	208.613	-23.1094	57.6398	
30	0.25	199.779	9.53024	67.4077	188.154	30.8621	46.9272	180.26	42.4022	25.2	172.181	53.6925	8.18279	195.132	-16.1369	-11.288	192.655	-26.4796	-34.2068	194.538	-34.6918	-55.4026	169.39	-38.5018	-17.9999	149.531	-34.6755	-42.5191	123.097	-27.8651	-59.4666	147.323	-51.9778	-4.09346	123.248	-40.2129	-19.0213	93.8631	-27.2095	-17.3454	136.335	-61.236	20.9371	115.89	-49.0571	13.1226	97.6293	-33.5705	7.7757	186.525	-59.0691	46.7171	197.556	-58.0194	78.4133	209.37	-26.9165	57.3344	
31	0.258333	203.855	6.92191	68.3329	193.827	29.8012	43.8218	188.213	41.3894	23.1818	181.309	56.1063	4.2681	193.77	-21.9675	-8.74336	192.761	-27.9507	-35.1922	191.117	-39.7671	-57.1272	167.127	-39.0044	-18.7374	146.608	-33.3249	-39.5332	119.595	-19.3853	-57.4822	145.074	-47.4798	-3.61929	119.512	-35.8282	-15.9272	99.4395	-18.2681	-15.8584	132.982	-59.3732	22.9454	115.509	-44.9281	14.4519	99.5493	-22.6881	8.27336	184.993	-57.9891	46.1647	199.114	-58.4711	80.4548	208.019	-32.3599	56.9033	
32	0.266667	209.954	6.52491	70.2821	201.091	28.899	43.0251	196.898	41.1117	19.3671	189.979	53.377	2.2141	194.651	-23.0983	-8.78896	192.528	-27.4114	-37.6028	188.061	-36.9546	-56.502	167.582	-36.9636	-14.8884	146.518	-26.0621	-39.4012	117.141	-15.1078	-51.8753	144.513	-45.7886	-1.33575	120.92	-30.1227	-14.9332	96.6043	-10.6117	-11.3263	132.839	-55.7555	23.3398	111.384	-41.8765	16.8517	99.7458	-13.1722	11.6037	182.609	-61.8474	48.3526	192.097	-62.4915	80.1654	207.716	-35.4817	54.0206	
33	0.275	211.656	2.54011	68.499	207.808	26.3236	46.7949	202.633	38.1504	21.5633	199.025	51.0705	0.398902	196.404	-23.8899	-14.2623	191.16	-29.8633	-35.1524	183.679	-41.4317	-56.8567	164.466	-38.3101	-13.3159	145.312	-25.0264	-37.7422	120.18	-8.50306	-49.2182	140.201	-43.1023	-2.31321	118.821	-26.968	-13.5565	99.2081	-7.64141	-8.66901	128.967	-51.7609	22.3837	111.588	-36.1588	16.0349	98.525	-7.28958	12.3499	182.464	-62.2448	47.7175	192.454	-61.7182	77.9379	210.592	-34.0604	56.906	
34	0.283333	213.317	-1.53202	65.8909	213.943	22.8091	42.0956	207.445	31.2979	21.3007	206.064	47.2108	-1.4879	192.633	-28.3511	-11.9764	191.012	-31.6211	-40.0431	182.583	-40.1998	-58.7119	165.711	-33.4169	-18.7954	145.873	-22.5406	-36.9011	117.545	-1.51824	-47.2156	142.982	-40.0863	-2.26214	121.257	-23.7166	-12.6613	102.358	3.90816	-9.91511	128.788	-47.8791	22.1829	111.856	-29.8869	16.48	105.441	-2.26156	12.5932	177.739	-61.7506	49.9519	190.362	-61.6731	81.4151	208.754	-37.599	53.8752	
35	0.291667	215.778	-4.79014	69.6731	218.243	18.2512	40.505	215.884	29.9343	18.2341	209.02	39.757	-1.36271	196.914	-28.432	-16.1355	187.287	-33.3396	-36.2133	181.624	-37.558	-60.6576	164.11	-34.6064	-19.6479	145.086	-20.2113	-37.9606	119.244	-0.0548292	-45.6357	141.386	-41.0691	-0.825144	122.589	-16.4601	-15.22	103.012	7.36279	-9.26538	127.314	-44.0055	19.7475	115.752	-27.5997	15.2977	108.933	2.52573	14.3311	179.861	-61.7488	47.8922	188.878	-63.5345	83.6238	207.485	-42.8937	55.6631	
36	0.3	217.437	-7.62531	66.5882	220.887	14.2415	44.6444	219.808	24.4167	13.8177	216.282	36.694	-3.18927	194.029	-31.7177	-13.8046	189.479	-31.8515	-38.217	175.685	-35.4775	-60.3588	167.018	-32.4717	-19.0152	147.505	-18.5827	-36.2795	125.029	8.27008	-47.5098	143.123	-38.7184	-1.46509	123.028	-13.7315	-15.1675	109.557	12.2991	-10.0918	126.796	-43.9895	23.3051	112.079	-18.6858	13.8809	112.222	4.41889	10.0126	175.638	-59.9272	49.3186	186.176	-63.0468	79.1369	207.368	-43.6023	59.3821	
37	0.308333	216.994	-8.64225	72.4091	225.912	12.5355	46.184	225.508	21.612	14.8006	222.266	32.8499	-3.58636	195.236	-30.6951	-11.4764	187.117	-32.7215	-36.3376	178.799	-29.8546	-63.0999	166.59	-35.2322	-17.4515	147.518	-18.9497	-36.5105	126.71	8.76852	-45.1662	143.989	-39.1786	-2.08929	125.944	-12.0076	-16.8942	116.43	13.4486	-12.752	124.982	-39.6507	22.1332	114.446	-15.8581	12.8625	116.374	11.7256	9.17337	173.763	-61.8187	51.8468	180.52	-65.3164	81.5457	205.289	-44.7974	56.1012	
38	0.316667	218.567	-9.39031	74.2091	227.615	9.77277	47.7638	229.347	18.0819	17.5824	228.974	30.4817	1.08131	196.35	-31.2203	-14.5903	190.506	-30.4157	-39.5733	176.665	-26.0229	-64.0877	166.858	-37.5708	-15.5265	154.26	-18.7984	-38.1791	134.718	11.458	-48.3728	146.017	-35.9241	-5.83788	129.289	-15.8748	-19.1039	121.183	14.8557	-15.2652	128.035	-38.7291	20.8311	116.369	-18.2781	11.7821	119.306	10.5353	7.13077	171.964	-58.7129	52.2777	180.506	-61.6987	81.8475	204.826	-46.4641	58.6714	
39	0.325	221.667	-8.11933	74.8591	228.622	7.27719	45.413	230.049	14.661	19.8702	233.83	28.0181	3.37074	201.267	-29.6978	-8.78836	194.893	-30.0357	-37.0804	181.141	-23.1649	-63.1876	172.846	-36.792	-18.9747	155.667	-19.1342	-41.7147	137.158	10.0813	-49.4188	145.404	-37.3172	-7.40845	133.374	-13.6858	-22.9977	124.711	16.7821	-16.9694	131.485	-36.1056	16.2272	119.014	-13.3528	7.08968	122.318	16.2393	6.73729	168.771	-59.4828	51.5214	175.338	-61.0873	85.8788	205.471	-45.443	59.5575	
